<mxfile host="app.diagrams.net" modified="2021-04-21T07:46:30.168Z" agent="5.0 (Windows)" etag="1KVcKjNb65UVFv_XESLU" version="14.6.3" type="github">
  <diagram id="AdXwmWKLcYuKOg0p-BS0" name="Page-1">
    <mxGraphModel dx="1025" dy="1279" grid="1" gridSize="10" guides="1" tooltips="1" connect="1" arrows="1" fold="1" page="1" pageScale="1" pageWidth="850" pageHeight="1100" math="0" shadow="0">
      <root>
        <mxCell id="0" />
        <mxCell id="1" parent="0" />
        <mxCell id="u6hoUVZ-9YtyrhPmjFRd-1" value="" style="whiteSpace=wrap;html=1;" vertex="1" parent="1">
          <mxGeometry x="40" y="280" width="360" height="520" as="geometry" />
        </mxCell>
        <mxCell id="u6hoUVZ-9YtyrhPmjFRd-2" value="" style="whiteSpace=wrap;html=1;" vertex="1" parent="1">
          <mxGeometry x="440" y="280" width="360" height="520" as="geometry" />
        </mxCell>
        <mxCell id="u6hoUVZ-9YtyrhPmjFRd-3" value="&lt;div&gt;LOGIN&lt;/div&gt;" style="whiteSpace=wrap;html=1;" vertex="1" parent="1">
          <mxGeometry x="60" y="300" width="320" height="70" as="geometry" />
        </mxCell>
        <mxCell id="u6hoUVZ-9YtyrhPmjFRd-4" value="HAKU" style="whiteSpace=wrap;html=1;" vertex="1" parent="1">
          <mxGeometry x="60" y="390" width="320" height="30" as="geometry" />
        </mxCell>
        <mxCell id="u6hoUVZ-9YtyrhPmjFRd-5" value="&lt;div&gt;KAIKKI&lt;/div&gt;&lt;div&gt;LUKUVINKIT&lt;br&gt;&lt;/div&gt;" style="whiteSpace=wrap;html=1;" vertex="1" parent="1">
          <mxGeometry x="60" y="440" width="320" height="340" as="geometry" />
        </mxCell>
        <mxCell id="u6hoUVZ-9YtyrhPmjFRd-9" value="ETUSIVULLE" style="whiteSpace=wrap;html=1;" vertex="1" parent="1">
          <mxGeometry x="460" y="300" width="150" height="20" as="geometry" />
        </mxCell>
        <mxCell id="u6hoUVZ-9YtyrhPmjFRd-11" value="KIRJAUDU ULOS" style="whiteSpace=wrap;html=1;" vertex="1" parent="1">
          <mxGeometry x="640" y="300" width="150" height="20" as="geometry" />
        </mxCell>
        <mxCell id="u6hoUVZ-9YtyrhPmjFRd-12" value="ETUSIVU" style="text;html=1;strokeColor=none;fillColor=none;align=center;verticalAlign=middle;whiteSpace=wrap;rounded=0;" vertex="1" parent="1">
          <mxGeometry x="200" y="810" width="40" height="20" as="geometry" />
        </mxCell>
        <mxCell id="u6hoUVZ-9YtyrhPmjFRd-13" value="OMA SIVU" style="text;html=1;strokeColor=none;fillColor=none;align=center;verticalAlign=middle;whiteSpace=wrap;rounded=0;" vertex="1" parent="1">
          <mxGeometry x="560" y="810" width="120" height="20" as="geometry" />
        </mxCell>
        <mxCell id="u6hoUVZ-9YtyrhPmjFRd-14" value="HAKU" style="whiteSpace=wrap;html=1;" vertex="1" parent="1">
          <mxGeometry x="460" y="430" width="320" height="30" as="geometry" />
        </mxCell>
        <mxCell id="u6hoUVZ-9YtyrhPmjFRd-15" value="&lt;div&gt;LUKUVINKIN&lt;/div&gt;&lt;div&gt;LISÄYS&lt;br&gt;&lt;/div&gt;" style="whiteSpace=wrap;html=1;" vertex="1" parent="1">
          <mxGeometry x="460" y="340" width="320" height="70" as="geometry" />
        </mxCell>
        <mxCell id="u6hoUVZ-9YtyrhPmjFRd-16" value="OMAT LUKUVINKIT" style="whiteSpace=wrap;html=1;" vertex="1" parent="1">
          <mxGeometry x="460" y="480" width="320" height="300" as="geometry" />
        </mxCell>
        <mxCell id="u6hoUVZ-9YtyrhPmjFRd-18" value="" style="curved=1;endArrow=classic;html=1;exitX=0.5;exitY=0;exitDx=0;exitDy=0;entryX=0.5;entryY=0;entryDx=0;entryDy=0;" edge="1" parent="1" source="u6hoUVZ-9YtyrhPmjFRd-11" target="u6hoUVZ-9YtyrhPmjFRd-1">
          <mxGeometry width="50" height="50" relative="1" as="geometry">
            <mxPoint x="590" y="220" as="sourcePoint" />
            <mxPoint x="640" y="170" as="targetPoint" />
            <Array as="points">
              <mxPoint x="640" y="220" />
              <mxPoint x="390" y="150" />
            </Array>
          </mxGeometry>
        </mxCell>
        <mxCell id="u6hoUVZ-9YtyrhPmjFRd-19" value="ULOSKIRJAUTUMINEN" style="edgeLabel;html=1;align=center;verticalAlign=middle;resizable=0;points=[];" vertex="1" connectable="0" parent="u6hoUVZ-9YtyrhPmjFRd-18">
          <mxGeometry x="-0.0182" y="7" relative="1" as="geometry">
            <mxPoint as="offset" />
          </mxGeometry>
        </mxCell>
        <mxCell id="u6hoUVZ-9YtyrhPmjFRd-20" value="" style="curved=1;endArrow=classic;html=1;exitX=0.5;exitY=0;exitDx=0;exitDy=0;entryX=0.5;entryY=0;entryDx=0;entryDy=0;" edge="1" parent="1" source="u6hoUVZ-9YtyrhPmjFRd-3" target="u6hoUVZ-9YtyrhPmjFRd-2">
          <mxGeometry width="50" height="50" relative="1" as="geometry">
            <mxPoint x="450" y="250" as="sourcePoint" />
            <mxPoint x="500" y="200" as="targetPoint" />
            <Array as="points">
              <mxPoint x="320" y="250" />
              <mxPoint x="520" y="220" />
            </Array>
          </mxGeometry>
        </mxCell>
        <mxCell id="u6hoUVZ-9YtyrhPmjFRd-21" value="SISÄÄNKIRJAUTUMINEN" style="edgeLabel;html=1;align=center;verticalAlign=middle;resizable=0;points=[];" vertex="1" connectable="0" parent="u6hoUVZ-9YtyrhPmjFRd-20">
          <mxGeometry x="0.0986" y="3" relative="1" as="geometry">
            <mxPoint y="1" as="offset" />
          </mxGeometry>
        </mxCell>
      </root>
    </mxGraphModel>
  </diagram>
</mxfile>
